# xmcd
# 
# Track frame offsets:
#     150
#     22667
#     41244
#     62151
#     80575
#     88034
#     113102
#     137564
#     161844
#     183446
#     198516
#     216356
# 
# Disc length: 3150
# 
# Revision: 0
# Processed by: cddbd v1.5.2PL0 Copyright (c) Steve Scherf et al.
# Submitted via: fre:ac v1.0.27
# 
DISCID=a70c4c0c
DTITLE=Camerata Mediolanense - Vertute, Honor, Bellezza
DYEAR=2013
DGENRE=Neoclassical
TTITLE0=Voi ch'ascoltate
TTITLE1=Dolci ire
TTITLE2=Canzone all'Italia
TTITLE3=99 altri perfecti
TTITLE4=Fragmentum XXXV
TTITLE5=Solo et pensoso
TTITLE6=Tremo et taccio
TTITLE7=Vago augelletto
TTITLE8=Vergine bella
TTITLE9=Lo gran desire
TTITLE10=O mia stella
TTITLE11=Quest'anima gentil
EXTD=
EXTT0=
EXTT1=
EXTT2=
EXTT3=
EXTT4=
EXTT5=
EXTT6=
EXTT7=
EXTT8=
EXTT9=
EXTT10=
EXTT11=
PLAYORDER=
